HIERARCHY
ROOT Elbow
{
	OFFSET	0.00	0.00	0.00
	CHANNELS 6 Xposition Yposition Zposition Zrotation Xrotation Yrotation
	JOINT L_Wrist
	{
		OFFSET	 0.208349	 0.000000	 0.000000
		CHANNELS 3 Zrotation Xrotation Yrotation
		JOINT L_index_Proximal
		{
			OFFSET	 0.093499	 0.010637	-0.002084
			CHANNELS 3 Zrotation Xrotation Yrotation
			JOINT L_index_b
			{
				OFFSET	 0.033152	 0.000000	 0.000000
				CHANNELS 3 Zrotation Xrotation Yrotation
				JOINT L_index_c
				{
					OFFSET	 0.018651	 0.000000	 0.000000
					CHANNELS 3 Zrotation Xrotation Yrotation
					End Site
					{
						OFFSET	 0.018651	 0.000000	 0.000000
					}
				}
			}
		}
		JOINT L_middle_Proximal
		{
			OFFSET	 0.090632	-0.006115	-0.003750
			CHANNELS 3 Zrotation Xrotation Yrotation
			JOINT L_middle_b
			{
				OFFSET	 0.037195	 0.000000	 0.000000
				CHANNELS 3 Zrotation Xrotation Yrotation
				JOINT L_middle_c
				{
					OFFSET	 0.021943	 0.000000	 0.000000
					CHANNELS 3 Zrotation Xrotation Yrotation
					End Site
					{
						OFFSET	 0.021943	 0.000000	 0.000000
					}
				}
			}
		}
		JOINT L_pinky_Proximal
		{
			OFFSET	 0.074015	-0.035449	-0.000417
			CHANNELS 3 Zrotation Xrotation Yrotation
			JOINT L_pinky_b
			{
				OFFSET	 0.027285	 0.000000	 0.000000
				CHANNELS 3 Zrotation Xrotation Yrotation
				JOINT L_pinky_c
				{
					OFFSET	 0.015093	 0.000000	 0.000000
					CHANNELS 3 Zrotation Xrotation Yrotation
					End Site
					{
						OFFSET	 0.015093	 0.000000	 0.000000
					}
				}
			}
		}
		JOINT L_ring_Proximal
		{
			OFFSET	 0.082801	-0.021859	-0.003750
			CHANNELS 3 Zrotation Xrotation Yrotation
			JOINT L_ring_b
			{
				OFFSET	 0.034478	 0.000000	 0.000000
				CHANNELS 3 Zrotation Xrotation Yrotation
				JOINT L_ring_c
				{
					OFFSET	 0.021377	 0.000000	 0.000000
					CHANNELS 3 Zrotation Xrotation Yrotation
					End Site
					{
						OFFSET	 0.021377	 0.000000	 0.000000
					}
				}
			}
		}
		JOINT L_thumb_Proximal
		{
			OFFSET	 0.030306	 0.018528	 0.004584
			CHANNELS 3 Zrotation Xrotation Yrotation
			JOINT L_thumb_a
			{
				OFFSET	 0.038520	 0.000000	 0.000000
				CHANNELS 3 Zrotation Xrotation Yrotation
				JOINT L_thumb_b
				{
					OFFSET	 0.026310	 0.000000	 0.000000
					CHANNELS 3 Zrotation Xrotation Yrotation
					End Site
					{
						OFFSET	 0.026310	 0.000000	 0.000000
					}
				}
			}
		}
	}
}
MOTION
Frames:    8
Frame Time: 0.01666667
 0.519529	-0.276699	 0.728991	 71.010000	 35.723200	 36.145950	 7.346710	 0.119074	 0.675318	 3.851634	-0.838576	-14.117060	-1.486712	 0.210072	-16.084430	-0.087348	 0.007322	-9.587330	-7.539036	-9.000558	-16.935880	 2.051038	-0.309853	-17.179510	-2.057577	 0.167960	-9.332090	-30.846070	-18.973630	-18.278550	 0.014790	-0.002393	-18.333060	 0.965375	-0.068656	-8.135311	-12.838390	-12.556280	-12.957310	-1.409611	 0.187003	-15.113350	 1.095807	-0.093721	-9.776397	 44.100110	 63.141040	-2.599732	-3.084185	 0.011938	-0.443943	 2.310591	-0.173539	-8.590166
 0.519465	-0.276628	 0.728932	 71.012940	 35.716980	 36.143280	 7.341676	 0.122388	 0.694095	 3.863133	-0.839952	-14.092510	-1.480366	 0.208950	-16.067290	-0.093551	 0.007871	-9.616649	-7.542547	-9.000234	-16.960660	 2.076022	-0.315160	-17.262410	-2.038806	 0.167930	-9.416349	-30.795630	-18.985910	-18.218530	 0.026707	-0.004308	-18.326890	 0.982957	-0.069936	-8.138351	-12.829930	-12.557140	-12.943430	-1.390661	 0.184894	-15.145890	 1.113228	-0.095304	-9.785590	 44.138300	 63.138500	-2.618181	-3.078099	 0.012485	-0.465043	 2.320339	-0.174812	-8.615908
 0.519525	-0.276546	 0.728977	 70.995870	 35.732730	 36.152000	 7.346290	 0.126026	 0.714756	 3.865271	-0.840089	-14.085100	-1.476832	 0.208496	-16.071040	-0.092489	 0.007796	-9.627888	-7.545393	-9.000546	-17.012810	 2.078957	-0.316302	-17.299620	-2.040039	 0.168203	-9.425871	-30.784560	-18.988380	-18.212810	 0.019566	-0.003160	-18.340080	 0.973264	-0.069338	-8.150215	-12.832180	-12.558880	-12.984430	-1.384217	 0.184342	-15.170730	 1.113246	-0.095715	-9.827753	 44.117840	 63.142620	-2.584232	-3.080940	 0.012843	-0.477930	 2.321371	-0.175133	-8.627686
 0.519459	-0.276516	 0.729050	 70.976050	 35.754730	 36.162210	 7.347587	 0.130335	 0.739212	 3.877794	-0.843352	-14.104740	-1.469749	 0.207913	-16.102700	-0.089001	 0.007514	-9.640484	-7.544707	-9.001285	-17.044430	 2.075178	-0.315501	-17.287350	-2.041158	 0.168032	-9.411067	-30.778240	-18.988170	-18.263200	 0.009538	-0.001540	-18.378840	 0.964770	-0.069024	-8.184127	-12.829680	-12.561690	-13.028890	-1.376863	 0.183634	-15.193010	 1.113448	-0.095877	-9.843052	 44.091320	 63.147730	-2.541627	-3.082043	 0.013148	-0.489112	 2.327688	-0.175950	-8.644515
 0.519483	-0.276483	 0.729096	 70.968120	 35.765430	 36.167000	 7.345045	 0.133243	 0.755678	 3.884989	-0.844990	-14.109780	-1.461786	 0.206999	-16.119030	-0.088504	 0.007466	-9.639628	-7.544269	-9.001875	-17.070820	 2.075597	-0.315634	-17.291440	-2.039405	 0.167888	-9.411493	-30.783980	-18.986070	-18.293430	 0.009777	-0.001581	-18.394190	 0.964320	-0.069069	-8.193312	-12.828530	-12.562810	-13.046070	-1.369314	 0.182764	-15.204210	 1.118604	-0.096328	-9.843540	 44.073380	 63.151070	-2.513870	-3.085627	 0.013109	-0.486852	 2.328130	-0.175966	-8.643992
 0.519540	-0.276486	 0.729158	 70.946880	 35.791420	 36.180230	 7.335988	 0.136737	 0.775489	 3.910752	-0.850922	-14.129720	-1.458500	 0.206802	-16.140000	-0.091924	 0.007752	-9.634304	-7.515654	-9.008546	-17.082450	 2.082154	-0.316320	-17.274760	-2.044933	 0.167932	-9.388473	-30.775490	-18.986490	-18.338340	 0.018839	-0.003048	-18.424230	 0.969983	-0.069472	-8.192739	-12.802570	-12.567740	-13.046860	-1.362780	 0.181867	-15.202000	 1.120200	-0.096347	-9.831092	 44.018100	 63.158520	-2.453169	-3.090622	 0.012440	-0.460743	 2.329629	-0.175240	-8.602578
 0.519532	-0.276478	 0.729156	 70.944760	 35.791480	 36.181620	 7.335979	 0.136734	 0.775490	 3.910760	-0.850921	-14.129710	-1.458495	 0.206803	-16.140000	-0.091933	 0.007747	-9.634306	-7.515645	-9.008549	-17.082450	 2.082150	-0.316323	-17.274750	-2.044928	 0.167937	-9.388475	-30.775480	-18.986490	-18.338350	 0.018836	-0.003053	-18.424220	 0.969987	-0.069473	-8.192736	-12.802560	-12.567740	-13.046860	-1.362778	 0.181864	-15.202010	 1.120200	-0.096349	-9.831090	 44.018090	 63.158530	-2.453161	-3.090627	 0.012426	-0.460750	 2.329625	-0.175222	-8.602582
 0.519557	-0.276547	 0.729160	 70.938480	 35.804210	 36.189320	 7.335859	 0.138532	 0.785650	 3.909764	-0.852560	-14.177570	-1.455426	 0.206570	-16.155520	-0.085150	 0.007161	-9.618299	-7.503673	-9.010715	-17.054380	 2.082740	-0.315566	-17.229510	-2.041135	 0.167039	-9.355882	-30.788960	-18.983200	-18.354160	 0.025429	-0.004126	-18.426470	 0.977028	-0.069829	-8.175438	-12.792300	-12.570170	-13.056260	-1.362793	 0.181802	-15.196290	 1.126455	-0.096802	-9.823056	 43.932250	 63.168950	-2.368784	-3.108310	 0.012527	-0.461690	 2.325313	-0.174799	-8.596988
